<?xml version="1.0" encoding="utf-8"?>
<!-- Generator: Adobe Illustrator 16.0.0, SVG Export Plug-In . SVG Version: 6.00 Build 0)  -->
<!DOCTYPE svg PUBLIC "-//W3C//DTD SVG 1.1//EN" "http://www.w3.org/Graphics/SVG/1.1/DTD/svg11.dtd">
<svg version="1.1" id="Layer_1" xmlns="http://www.w3.org/2000/svg" xmlns:xlink="http://www.w3.org/1999/xlink" x="0px" y="0px"
	 width="50px" height="50px" viewBox="0 0 50 50" enable-background="new 0 0 50 50" xml:space="preserve">
<g>
	<g>
		<path fill="#89C1F4" d="M27.459,26.241c-4.068,0-7.377-3.309-7.377-7.377c0-4.068,3.309-7.377,7.377-7.377
			s7.377,3.309,7.377,7.377C34.836,22.932,31.527,26.241,27.459,26.241z"/>
		<path fill="#15549A" d="M12.705,41.803c-1.355,0-2.459,1.104-2.459,2.46c0,1.355,1.104,2.459,2.459,2.459
			c1.356,0,2.459-1.104,2.459-2.459C15.164,42.906,14.061,41.803,12.705,41.803z M12.705,45.082c-0.452,0-0.819-0.367-0.819-0.819
			s0.367-0.819,0.819-0.819c0.453,0,0.82,0.367,0.82,0.819S13.157,45.082,12.705,45.082z"/>
		<path fill="#15549A" d="M37.295,41.803c-1.355,0-2.459,1.104-2.459,2.46c0,1.355,1.104,2.459,2.459,2.459s2.459-1.104,2.459-2.459
			C39.754,42.906,38.65,41.803,37.295,41.803z M37.295,45.082c-0.453,0-0.82-0.367-0.82-0.819s0.367-0.819,0.82-0.819
			c0.452,0,0.819,0.367,0.819,0.819C38.115,44.715,37.748,45.082,37.295,45.082z"/>
		<path fill="#15549A" d="M43.729,33.656c-0.325-0.98-1.249-1.689-2.336-1.689h-2.601c-1.572,0-3.113,0.595-4.283,1.64h-4.592
			v-1.185c0-1.607-1.307-2.914-2.914-2.914c-1.017,0-1.974,0.543-2.498,1.415l-1.61,2.684h-2.034c-0.259,0-0.49-0.124-0.632-0.343
			s-0.163-0.479-0.057-0.717l1.648-3.707c0.539-1.213-0.005-2.647-1.211-3.198c-1.007-0.461-2.199-0.181-2.898,0.68l-4.668,5.756
			l-7.151,2.2c-2.299,0.708-3.845,2.799-3.845,5.205v2.908c0,1.484,1.208,2.691,2.691,2.691h2.292C7.433,47.857,9.82,50,12.705,50
			c2.885,0,5.272-2.143,5.672-4.918h13.246C32.023,47.857,34.41,50,37.295,50s5.272-2.143,5.672-4.918h0.066
			c2.712,0,4.918-2.206,4.918-4.918v-1.64C47.951,36.049,46.112,33.995,43.729,33.656z M25.912,31.767
			c0.23-0.382,0.648-0.619,1.093-0.619c0.702,0,1.274,0.571,1.274,1.274v1.185h-3.471L25.912,31.767z M12.705,48.361
			c-2.26,0-4.098-1.839-4.098-4.099s1.838-4.099,4.098-4.099s4.099,1.839,4.099,4.099S14.964,48.361,12.705,48.361z M37.295,48.361
			c-2.26,0-4.098-1.839-4.098-4.099s1.838-4.099,4.098-4.099s4.098,1.839,4.098,4.099C41.394,46.522,39.555,48.361,37.295,48.361z
			 M46.312,40.164c0,1.809-1.471,3.279-3.278,3.279h-0.066c-0.399-2.776-2.787-4.919-5.672-4.919s-5.271,2.143-5.672,4.919H18.377
			c-0.4-2.776-2.788-4.919-5.672-4.919c-2.884,0-5.272,2.143-5.672,4.919H4.74c-0.581,0-1.052-0.473-1.052-1.053v-1.406h2.049
			c1.13,0,2.049-0.92,2.049-2.05s-0.919-2.049-2.049-2.049h-0.41v1.64h0.41c0.226,0,0.41,0.184,0.41,0.409s-0.185,0.41-0.41,0.41
			H3.7c0.059-1.622,1.114-3.02,2.676-3.5l7.629-2.348l4.982-6.143c0.229-0.282,0.617-0.37,0.943-0.222
			c0.393,0.18,0.57,0.646,0.395,1.041l-1.648,3.709c-0.33,0.742-0.262,1.593,0.181,2.275c0.443,0.682,1.193,1.088,2.006,1.088
			h14.313l0.24-0.24c0.889-0.889,2.12-1.398,3.377-1.398h2.601c0.452,0,0.819,0.367,0.819,0.819v0.819h0.82
			c1.808,0,3.278,1.471,3.278,3.279V40.164z"/>
		<path fill="#15549A" d="M28.278,21.312h-1.64c-0.452,0-0.819,0-0.819-0.82H24.18c0,1.64,1.103,2.471,2.458,2.471v0.808h1.64
			v-0.808c1.356,0,2.459-1.109,2.459-2.465s-1.103-2.465-2.459-2.465h-1.64c-0.452,0-0.819-0.367-0.819-0.82
			c0-0.452,0.367-0.819,0.819-0.819h1.64c0.452,0,0.819,0,0.819,0.819h1.64c0-1.639-1.103-2.447-2.459-2.447v-0.831h-1.64v0.831
			c-1.355,0-2.458,1.098-2.458,2.453c0,1.356,1.103,2.454,2.458,2.454h1.64c0.452,0,0.819,0.367,0.819,0.819
			C29.098,20.944,28.731,21.312,28.278,21.312z"/>
		<rect x="26.639" y="4.098" fill="#15549A" width="1.641" height="5.738"/>
		<rect x="26.639" y="0.831" fill="#15549A" width="1.641" height="1.64"/>
		<rect x="31.557" y="3.279" fill="#15549A" width="1.641" height="8.197"/>
		<rect x="31.557" fill="#15549A" width="1.641" height="1.64"/>
		<rect x="21.721" y="5.738" fill="#15549A" width="1.64" height="5.738"/>
		<rect x="21.721" y="2.471" fill="#15549A" width="1.64" height="1.639"/>
	</g>
</g>
</svg>
