<?xml version="1.0" encoding="utf-8"?>
<!-- Generator: Adobe Illustrator 16.0.0, SVG Export Plug-In . SVG Version: 6.00 Build 0)  -->
<!DOCTYPE svg PUBLIC "-//W3C//DTD SVG 1.1//EN" "http://www.w3.org/Graphics/SVG/1.1/DTD/svg11.dtd">
<svg version="1.1" id="Layer_1" xmlns="http://www.w3.org/2000/svg" xmlns:xlink="http://www.w3.org/1999/xlink" x="0px" y="0px"
	 width="50px" height="50px" viewBox="0 0 50 50" enable-background="new 0 0 50 50" xml:space="preserve">
<g>
	<line fill="none" stroke="#333333" stroke-width="2" stroke-miterlimit="10" x1="7.258" y1="4.032" x2="42.742" y2="4.032"/>
	<g>
		<path fill="#89C1F4" d="M13.71,50c-3.112,0-5.646-2.533-5.646-5.645c0-3.113,2.533-5.646,5.646-5.646s5.645,2.533,5.645,5.646
			C19.355,47.467,16.822,50,13.71,50z"/>
		<path fill="#89C1F4" d="M35.484,44.355c-3.112,0-5.646-2.533-5.646-5.646c0-3.111,2.533-5.645,5.646-5.645
			c3.111,0,5.645,2.533,5.645,5.645C41.129,41.822,38.596,44.355,35.484,44.355z"/>
		<path fill="#15549A" d="M41.129,0H8.871C7.537,0,6.452,1.085,6.452,2.419v19.355c0,1.333,1.085,2.419,2.419,2.419h32.258
			c1.334,0,2.42-1.085,2.42-2.419V2.419C43.549,1.085,42.463,0,41.129,0z M8.871,1.613h32.258c0.445,0,0.807,0.362,0.807,0.807
			v4.839H8.064V2.419C8.064,1.975,8.426,1.613,8.871,1.613z M41.129,22.581H8.871c-0.445,0-0.807-0.362-0.807-0.806V8.871h33.871
			v12.903C41.936,22.218,41.574,22.581,41.129,22.581z"/>
		<path fill="#15549A" d="M34.678,11.291c-0.882,0-1.707,0.241-2.42,0.655c-0.713-0.414-1.537-0.655-2.419-0.655
			c-2.669,0-4.839,2.17-4.839,4.838c0,2.669,2.17,4.839,4.839,4.839c0.882,0,1.706-0.241,2.419-0.655
			c0.713,0.414,1.538,0.655,2.42,0.655c2.668,0,4.838-2.17,4.838-4.839C39.516,13.46,37.346,11.291,34.678,11.291z M32.258,18.24
			c-0.496-0.567-0.807-1.3-0.807-2.111c0-0.811,0.311-1.543,0.807-2.111c0.496,0.567,0.807,1.3,0.807,2.111
			C33.064,16.94,32.754,17.672,32.258,18.24z M26.613,16.129c0-1.779,1.446-3.226,3.225-3.226c0.378,0,0.734,0.078,1.072,0.197
			c-0.669,0.83-1.072,1.883-1.072,3.029s0.403,2.199,1.072,3.029c-0.338,0.119-0.694,0.197-1.072,0.197
			C28.061,19.355,26.613,17.908,26.613,16.129z M34.678,19.355c-0.378,0-0.734-0.078-1.071-0.197
			c0.669-0.83,1.071-1.883,1.071-3.029s-0.402-2.199-1.071-3.029c0.337-0.12,0.693-0.197,1.071-0.197
			c1.779,0,3.226,1.447,3.226,3.226C37.903,17.908,36.457,19.355,34.678,19.355z"/>
		<rect x="8.064" y="31.451" fill="#15549A" width="1.613" height="6.452"/>
		<rect x="8.064" y="28.226" fill="#15549A" width="1.613" height="1.613"/>
		<rect x="17.742" y="25.807" fill="#15549A" width="1.613" height="10.484"/>
		<rect x="12.903" y="29.839" fill="#15549A" width="1.613" height="7.258"/>
		<rect x="12.903" y="26.613" fill="#15549A" width="1.613" height="1.612"/>
		<rect x="29.839" y="27.42" fill="#15549A" width="1.612" height="5.645"/>
		<rect x="39.516" y="25.807" fill="#15549A" width="1.613" height="4.838"/>
		<rect x="34.678" y="29.032" fill="#15549A" width="1.613" height="2.419"/>
		<rect x="34.678" y="25.807" fill="#15549A" width="1.613" height="1.613"/>
	</g>
</g>
</svg>
