<?xml version="1.0" encoding="utf-8"?>
<!-- Generator: Adobe Illustrator 16.0.0, SVG Export Plug-In . SVG Version: 6.00 Build 0)  -->
<!DOCTYPE svg PUBLIC "-//W3C//DTD SVG 1.1//EN" "http://www.w3.org/Graphics/SVG/1.1/DTD/svg11.dtd">
<svg version="1.1" id="Layer_1" xmlns="http://www.w3.org/2000/svg" xmlns:xlink="http://www.w3.org/1999/xlink" x="0px" y="0px"
	 width="50px" height="50px" viewBox="0 0 50 50" enable-background="new 0 0 50 50" xml:space="preserve">
<g>
	<g>
		<path fill="#15549A" d="M49.193,17.742c-3.86,0-7.018,3.032-7.237,6.838l-1.634,1.227V13.709h-1.613v8.171l-3.248-2.165
			c-0.232-3.794-3.385-6.812-7.235-6.812H27.42v0.806c0,3.913,3.113,7.104,6.992,7.244l4.297,2.865v5.213h-6.451v3.227v1.613v1.612
			v1.613v1.612v1.613v1.613v1.613v1.612v1.613V50h14.516v-3.226v-1.613v-1.612v-1.613v-1.613v-1.613v-1.612v-1.613v-1.612v-1.613
			v-3.227h-6.451v-1.209l2.707-2.031C46.897,25.639,50,22.453,50,18.548v-0.807H49.193L49.193,17.742z M29.1,14.584
			c2.415,0.376,4.326,2.289,4.703,4.703C31.389,18.91,29.477,16.998,29.1,14.584z M38.709,33.871v1.612h-1.612v-1.612H38.709z
			 M38.709,37.096v1.613h-1.612v-1.613H38.709z M38.709,40.322v1.613h-1.612v-1.613H38.709z M38.709,43.548v1.612h-1.612v-1.612
			H38.709z M38.709,46.773v1.613h-1.612v-1.613H38.709z M40.322,46.773h1.613v1.613h-1.613V46.773z M40.322,45.16v-1.612h1.613
			v1.612H40.322z M40.322,41.936v-1.613h1.613v1.613H40.322z M40.322,38.709v-1.613h1.613v1.613H40.322z M40.322,35.483v-1.612
			h1.613v1.612H40.322z M40.322,32.258v-1.613h1.613v1.613H40.322z M38.709,32.258h-1.612v-1.613h1.612V32.258z M33.871,30.645
			h1.613v1.613h-1.613V30.645z M33.871,33.871h1.613v1.612h-1.613V33.871z M33.871,37.096h1.613v1.613h-1.613V37.096z
			 M33.871,40.322h1.613v1.613h-1.613V40.322z M33.871,43.548h1.613v1.612h-1.613V43.548z M33.871,46.773h1.613v1.613h-1.613V46.773
			z M45.161,48.387h-1.612v-1.613h1.612V48.387z M45.161,45.16h-1.612v-1.612h1.612V45.16z M45.161,41.936h-1.612v-1.613h1.612
			V41.936z M45.161,38.709h-1.612v-1.613h1.612V38.709z M45.161,35.483h-1.612v-1.612h1.612V35.483z M45.161,32.258h-1.612v-1.613
			h1.612V32.258z M43.616,24.125c0.376-2.415,2.288-4.327,4.702-4.703C47.942,21.837,46.03,23.749,43.616,24.125z"/>
		<path fill="#89C1F4" d="M39.516,14.516c-4.002,0-7.258-3.256-7.258-7.258S35.514,0,39.516,0c4.003,0,7.258,3.255,7.258,7.258
			C46.773,11.261,43.519,14.516,39.516,14.516z"/>
		<path fill="#15549A" d="M40.322,9.677h-1.613c-0.443,0-0.806-0.361-0.806-0.806H36.29c0,1.333,1.085,2.419,2.419,2.419v0.807
			h1.613V11.29c1.334,0,2.42-1.085,2.42-2.419c0-1.334-1.086-2.419-2.42-2.419h-1.613c-0.443,0-0.806-0.361-0.806-0.807
			c0-0.445,0.362-0.806,0.806-0.806h1.613c0.444,0,0.807,0.361,0.807,0.806h1.613c0-1.333-1.086-2.419-2.42-2.419V2.419h-1.613
			v0.806c-1.334,0-2.419,1.085-2.419,2.419s1.085,2.419,2.419,2.419h1.613c0.444,0,0.807,0.361,0.807,0.807
			C41.129,9.316,40.767,9.677,40.322,9.677z"/>
		<path fill="#15549A" d="M16.129,38.709v1.613v1.613v1.613v1.612v1.612V50h14.515v-3.227v-1.612v-1.612v-1.613v-1.613v-1.613
			v-3.226H16.129V38.709z M17.742,40.322h1.613v1.613h-1.613V40.322z M20.968,41.936v-1.613h1.613v1.613H20.968z M22.581,43.548
			v1.612h-1.613v-1.612H22.581z M22.581,46.773v1.613h-1.613v-1.613H22.581z M24.194,46.773h1.613v1.613h-1.613V46.773z
			 M24.194,45.16v-1.612h1.613v1.612H24.194z M24.194,41.936v-1.613h1.613v1.613H24.194z M24.194,38.709v-1.613h1.613v1.613H24.194z
			 M22.581,38.709h-1.613v-1.613h1.613V38.709z M17.742,43.548h1.613v1.612h-1.613V43.548z M17.742,46.773h1.613v1.613h-1.613
			V46.773z M29.032,48.387H27.42v-1.613h1.612V48.387z M29.032,45.16H27.42v-1.612h1.612V45.16z M29.032,41.936H27.42v-1.613h1.612
			V41.936z M29.032,38.709H27.42v-1.613h1.612V38.709z M17.742,37.096h1.613v1.613h-1.613V37.096z"/>
		<path fill="#15549A" d="M0,45.16v1.613V50h14.516v-3.227V45.16v-3.225H0V45.16z M1.613,46.773h1.613v1.613H1.613V46.773z
			 M8.065,46.773h1.613v1.613H8.065V46.773z M6.452,48.387H4.839v-1.613h1.613V48.387z M8.065,45.16v-1.612h1.613v1.612H8.065z
			 M6.452,45.16H4.839v-1.612h1.613V45.16z M12.903,48.387h-1.613v-1.613h1.613V48.387z M12.903,45.16h-1.613v-1.612h1.613V45.16z
			 M1.613,43.548h1.613v1.612H1.613V43.548z"/>
		<polygon fill="#15549A" points="12.333,22.873 19.024,27.055 24.392,8.651 25.891,11.651 27.334,10.93 24.554,5.369 18.995,8.149 
			19.715,9.593 22.902,7.999 18.073,24.558 11.861,20.676 0.136,38.262 1.478,39.156 		"/>
	</g>
</g>
</svg>
