<?xml version="1.0" encoding="utf-8"?>
<!-- Generator: Adobe Illustrator 16.0.0, SVG Export Plug-In . SVG Version: 6.00 Build 0)  -->
<!DOCTYPE svg PUBLIC "-//W3C//DTD SVG 1.1//EN" "http://www.w3.org/Graphics/SVG/1.1/DTD/svg11.dtd">
<svg version="1.1" id="Layer_1" xmlns="http://www.w3.org/2000/svg" xmlns:xlink="http://www.w3.org/1999/xlink" x="0px" y="0px"
	 width="50px" height="50px" viewBox="0 0 50 50" enable-background="new 0 0 50 50" xml:space="preserve">
<g>
	<g>
		<path fill="#89C1F4" d="M22.581,8.063l-8.871-2.416l-2.18,1.813c-0.685-1.026-1.046-2.221-1.046-3.454V2.018
			c0-1.112,0.904-2.016,2.016-2.016s2.016,0.904,2.016,2.016v0.807c0,0.222,0.181,0.403,0.403,0.403
			c0.222,0,0.403-0.182,0.403-0.403V2.018c0-1.112,0.904-2.016,2.016-2.016c1.112,0,2.016,0.904,2.016,2.016v0.807
			c0,0.222,0.181,0.403,0.403,0.403c0.222,0,0.403-0.182,0.403-0.403V2.018c0-1.112,0.904-2.016,2.016-2.016
			c1.112,0,2.016,0.904,2.016,2.016v1.988c0,1.233-0.361,2.428-1.046,3.454L22.581,8.063z"/>
		<path fill="#15549A" d="M9.868,20.16l-1.613-0.807h-2.61V7.256H0v15.323h5.645v-1.613h2.229l1.613,0.807h0.997v-1.613L9.868,20.16
			L9.868,20.16z M4.032,20.966H1.613V8.869h2.419V20.966L4.032,20.966z"/>
		<path fill="#89C1F4" d="M17.748,37.904c-0.146,0-0.291-0.002-0.438-0.008c-5.443-0.22-9.952-4.834-10.05-10.284
			c-0.051-2.812,1.001-5.47,2.962-7.486c1.729-1.778,2.682-3.997,2.682-6.245l4.032-2.589l1.613,1.613v8.062h5.645l0.944-0.971
			c1.992,1.98,3.088,4.617,3.088,7.426c0,2.881-1.145,5.566-3.223,7.563C23.032,36.877,20.469,37.904,17.748,37.904z"/>
		<path fill="#15549A" d="M21.774,25.805v-0.4c0-1.557-1.267-2.826-2.823-2.826h-0.403v-1.613h-1.613v1.613h-0.403
			c-1.557,0-2.823,1.266-2.823,2.822c0,1.557,1.266,2.823,2.823,2.823h2.419c0.667,0,1.21,0.542,1.21,1.209s-0.543,1.21-1.21,1.21
			h-2.419c-0.667,0-1.21-0.54-1.21-1.206V29.03h-1.613v0.407c0,1.557,1.266,2.818,2.823,2.818h0.403v1.613h1.613v-1.613h0.403
			c1.556,0,2.823-1.266,2.823-2.822s-1.267-2.822-2.823-2.822h-2.419c-0.667,0-1.21-0.543-1.21-1.21s0.543-1.209,1.21-1.209h2.419
			c0.667,0,1.209,0.546,1.209,1.213v0.4H21.774L21.774,25.805z"/>
		<path fill="#15549A" d="M25.177,11.292c0.387-0.429,0.629-0.993,0.629-1.614c0-1.334-1.085-2.421-2.419-2.421h-3.002l-0.561-0.702
			l-6.302-1.802L8.579,8.869h-3.74v1.613h4.324l4.735-3.944l4.988,1.425l1.697,2.121c0.224,0.28,0.323,0.632,0.278,0.988
			c-0.045,0.356-0.229,0.673-0.517,0.888c-0.52,0.39-1.26,0.337-1.721-0.123l-1.627-1.627L12.4,13.887l1.007,1.26l3.469-2.775
			l0.606,0.607c0.089,0.089,0.188,0.161,0.286,0.236c0.059,0.588,0.273,0.935,0.603,1.3c-0.387,0.429-0.629,0.992-0.629,1.614
			c0,0.622,0.243,1.185,0.629,1.613c-0.387,0.429-0.629,0.989-0.629,1.611c0,1.335,1.085,2.419,2.419,2.419h3.226
			c1.334,0,2.419-1.084,2.419-2.418c0-0.622-0.242-1.183-0.629-1.612c0.387-0.429,0.629-0.99,0.629-1.613
			c0-0.623-0.242-1.184-0.629-1.613c0.387-0.429,0.629-0.991,0.629-1.613S25.563,11.721,25.177,11.292z M23.387,20.16h-3.226
			c-0.444,0-0.806-0.362-0.806-0.807s0.362-0.806,0.806-0.806h3.226c0.444,0,0.806,0.362,0.806,0.806
			C24.193,19.798,23.832,20.16,23.387,20.16z M23.387,16.934h-3.226c-0.444,0-0.806-0.362-0.806-0.806s0.362-0.807,0.806-0.807
			h3.226c0.444,0,0.806,0.362,0.806,0.807S23.832,16.934,23.387,16.934z M23.387,13.708h-2.988c0.322-0.096,0.632-0.246,0.913-0.457
			c0.406-0.305,0.707-0.706,0.906-1.156h1.169c0.444,0,0.806,0.362,0.806,0.806C24.193,13.346,23.832,13.708,23.387,13.708z
			 M23.387,10.482h-0.946c-0.074-0.508-0.269-0.992-0.599-1.406L21.676,8.87h1.711c0.444,0,0.806,0.362,0.806,0.806
			S23.832,10.482,23.387,10.482z"/>
		<path fill="#15549A" d="M44.355,37.901v2.419h-5.401l-2.216-1.477l-6.797-2.41c-0.646-0.229-1.342-0.182-1.953,0.129
			s-1.058,0.842-1.257,1.499c-0.345,1.136,0.167,2.366,1.216,2.923l1.746,0.927l-2.539,0.009l-1.044-2.61
			c-0.343-0.854-1.161-1.408-2.083-1.408c-0.72,0-1.401,0.351-1.821,0.935c-0.42,0.585-0.534,1.342-0.304,2.023l0.244,0.725
			l-1.769-0.967c-0.563-0.309-1.236-0.369-1.844-0.163c-0.609,0.203-1.11,0.655-1.375,1.24c-0.518,1.144-0.041,2.476,1.085,3.03
			l3.98,1.965l8.263,1.681l10.722,0.015l3.146-0.629v2.242H50V37.901H44.355L44.355,37.901z M23.516,39.776
			c0.271-0.378,0.924-0.298,1.096,0.134l0.807,2.015l-1.453,0.005l-0.534-1.586C23.366,40.15,23.396,39.943,23.516,39.776z
			 M41.049,46.772H30.725l-7.882-1.577l-3.886-1.916c-0.341-0.169-0.486-0.572-0.329-0.92c0.081-0.181,0.229-0.314,0.417-0.377
			c0.187-0.064,0.387-0.045,0.56,0.051l2.77,1.514h7.654l3.182-1.592l-4.507-2.396c-0.369-0.196-0.55-0.63-0.429-1.03
			c0.07-0.232,0.227-0.42,0.443-0.529c0.215-0.11,0.461-0.125,0.688-0.046l6.521,2.288l2.537,1.691h5.891v4.178L41.049,46.772z
			 M48.387,48.385h-2.419v-8.87h2.419V48.385z"/>
	</g>
</g>
</svg>
