<?xml version="1.0" encoding="utf-8"?>
<!-- Generator: Adobe Illustrator 16.0.0, SVG Export Plug-In . SVG Version: 6.00 Build 0)  -->
<!DOCTYPE svg PUBLIC "-//W3C//DTD SVG 1.1//EN" "http://www.w3.org/Graphics/SVG/1.1/DTD/svg11.dtd">
<svg version="1.1" id="Layer_1" xmlns="http://www.w3.org/2000/svg" xmlns:xlink="http://www.w3.org/1999/xlink" x="0px" y="0px"
	 width="50px" height="50px" viewBox="0 0 50 50" enable-background="new 0 0 50 50" xml:space="preserve">
<g>
	<g>
		<path fill="#15549A" d="M47.596,25.807h-1.629c-0.036-3.101-1.529-5.979-4.031-7.8v-4.7c0-1.557-1.267-2.823-2.822-2.823
			c-3.34,0-6.166,2.425-6.74,5.645h-2.534v1.613h4.001l0.05-0.753c0.181-2.743,2.476-4.892,5.224-4.892
			c0.666,0,1.209,0.543,1.209,1.21v5.555l0.361,0.239c2.299,1.523,3.672,4.073,3.672,6.824v1.496h3.24
			c0.437,0,0.791,0.354,0.791,0.791v8.094c0,0.438-0.354,0.792-0.791,0.792h-3.406l-0.171,0.579
			c-0.787,2.68-2.856,4.749-5.536,5.536l-0.579,0.171v3.79c0,0.226-0.183,0.407-0.408,0.407H29.44c-0.226,0-0.408-0.182-0.408-0.407
			v-3.624h-8.064v3.624c0,0.225-0.183,0.407-0.408,0.407h-8.055c-0.225,0-0.408-0.183-0.408-0.407v-4.326l-0.433-0.227
			c-2.718-1.417-4.406-4.196-4.406-7.253v-9.443c0-4.005,2.861-7.397,6.803-8.065l-0.271-1.591
			c-4.719,0.801-8.145,4.862-8.145,9.657v2.303H4.69c0.09-0.254,0.148-0.523,0.148-0.807c0-1.334-1.085-2.42-2.419-2.42
			c-0.284,0-0.553,0.058-0.807,0.148v-2.568H0v4.839c0,1.334,1.085,2.419,2.419,2.419h3.226v5.528c0,3.493,1.842,6.685,4.839,8.442
			v3.362c0,1.115,0.907,2.021,2.021,2.021h8.055c1.115,0,2.021-0.906,2.021-2.021v-2.011h4.839v2.011
			c0,1.114,0.906,2.021,2.021,2.021h8.055c1.114,0,2.021-0.906,2.021-2.021v-2.604c2.736-0.989,4.871-3.125,5.861-5.86h2.219
			c1.325,0,2.404-1.078,2.404-2.404v-8.094C50,26.886,48.921,25.807,47.596,25.807z M1.613,27.42c0-0.445,0.362-0.807,0.807-0.807
			s0.806,0.361,0.806,0.807c0,0.443-0.362,0.806-0.806,0.806S1.613,27.863,1.613,27.42z"/>
		<path fill="#89C1F4" d="M21.774,21.774c-5.781,0-10.484-4.703-10.484-10.484S15.994,0.807,21.774,0.807
			c5.78,0,10.483,4.703,10.483,10.484S27.555,21.774,21.774,21.774z"/>
		<rect x="15.322" y="20.968" fill="#15549A" width="12.903" height="1.613"/>
		<path fill="#15549A" d="M26.613,9.677V8.468c0-2.001-1.629-3.629-3.629-3.629h-0.403V3.226h-1.613v1.613h-0.403
			c-2.001,0-3.629,1.628-3.629,3.629c0,2,1.628,3.629,3.629,3.629h2.419c1.111,0,2.016,0.905,2.016,2.016s-0.905,2.016-2.016,2.016
			h-2.419c-1.111,0-2.017-0.905-2.017-2.016v-1.209h-1.613v1.209c0,2.001,1.628,3.629,3.629,3.629h0.403v1.613h1.613v-1.613h0.403
			c2,0,3.629-1.628,3.629-3.629s-1.629-3.629-3.629-3.629h-2.419c-1.111,0-2.016-0.905-2.016-2.016s0.905-2.016,2.016-2.016h2.419
			C24.095,6.452,25,7.356,25,8.468v1.209H26.613z"/>
		<path fill="#15549A" d="M33.744,24.629c0.008-0.013,0.815-1.242,2.547-1.242c1.697,0,2.516,1.196,2.546,1.242
			C38.991,24.869,39.252,25,39.518,25c0.148,0,0.299-0.041,0.434-0.127c0.375-0.24,0.484-0.739,0.244-1.115
			c-0.053-0.081-1.304-1.984-3.904-1.984c-2.602,0-3.854,1.903-3.905,1.984c-0.241,0.375-0.132,0.874,0.243,1.115
			C33.004,25.112,33.502,25.004,33.744,24.629z"/>
	</g>
</g>
</svg>
